<svg id="Layer_1" data-name="Layer 1" xmlns="http://www.w3.org/2000/svg" xmlns:xlink="http://www.w3.org/1999/xlink" viewBox="0 0 226.7 70.06"><defs><style>.cls-1{fill:url(#linear-gradient);}.cls-2{fill:#fff;}.cls-3{fill:#262424;}.cls-4{fill:none;}</style><linearGradient id="linear-gradient" x1="181.51" y1="0.27" x2="181.66" y2="71.69" gradientUnits="userSpaceOnUse"><stop offset="0" stop-color="#42729d"/><stop offset="1" stop-color="#0091c2"/></linearGradient></defs><title>logo-cursame</title><path class="cls-1" d="M221,0H141.94c-5.44.5-5.47,5.8-5.47,5.8V67.74c0,0.77.37,2.32,1.9,2.32s3.33-2.32,3.33-2.32,7-7.1,10.6-10.6a16.54,16.54,0,0,1,10.38-4.5h56.45l0,0h2c5.28,0,5.66-5.64,5.66-5.64V5.64C226.7,0.62,221,0,221,0Z"/><rect class="cls-2" x="147.73" y="11.52" width="2.65" height="29.76"/><rect class="cls-2" x="165.85" y="19.07" width="2.65" height="22.22"/><rect class="cls-2" x="183.98" y="22.72" width="2.65" height="18.57"/><path class="cls-2" d="M185.3,41.21A1.33,1.33,0,0,1,184,39.88V21.37A8.5,8.5,0,0,0,181.82,16a7.57,7.57,0,0,0-5.58-2,1.33,1.33,0,1,1,0-2.65,10.1,10.1,0,0,1,7.48,2.78,11.1,11.1,0,0,1,2.91,7.28v18.5A1.33,1.33,0,0,1,185.3,41.21Z"/><path class="cls-2" d="M167.18,41.21a1.33,1.33,0,0,1-1.33-1.33V21.37a11.1,11.1,0,0,1,2.91-7.27,10.1,10.1,0,0,1,7.48-2.78,1.33,1.33,0,0,1,0,2.65,7.56,7.56,0,0,0-5.59,2,8.55,8.55,0,0,0-2.14,5.39V39.89A1.33,1.33,0,0,1,167.18,41.21Z"/><path class="cls-2" d="M167.18,41.21a1.33,1.33,0,0,1-1.33-1.33V21.37A8.51,8.51,0,0,0,163.7,16a7.57,7.57,0,0,0-5.58-2,1.33,1.33,0,0,1,0-2.65,10.1,10.1,0,0,1,7.48,2.78,11.1,11.1,0,0,1,2.91,7.28v18.5A1.33,1.33,0,0,1,167.18,41.21Z"/><path class="cls-2" d="M149.05,41.21a1.33,1.33,0,0,1-1.33-1.33V21.37a11.1,11.1,0,0,1,2.91-7.27,10.1,10.1,0,0,1,7.48-2.78,1.33,1.33,0,0,1,0,2.65,7.56,7.56,0,0,0-5.59,2,8.55,8.55,0,0,0-2.14,5.39V39.89A1.33,1.33,0,0,1,149.05,41.21Z"/><path class="cls-2" d="M214.17,27.65H193.65a1.33,1.33,0,0,1-1.32-1.21c0-.3-0.62-7.41,3.39-11.8a11.86,11.86,0,0,1,16.46,0c4,4.4,3.33,11.51,3.3,11.81A1.33,1.33,0,0,1,214.17,27.65ZM194.95,25h17.94c0-2-.33-6-2.68-8.58a9.24,9.24,0,0,0-12.52,0C195.33,19,195,23,194.95,25Z"/><path class="cls-2" d="M203.86,41.28A10.58,10.58,0,0,1,195.65,38c-4-4.4-3.33-11.51-3.3-11.81a1.33,1.33,0,0,1,1.32-1.2h20.51a1.33,1.33,0,1,1,0,2.65H194.94c0,2,.33,6,2.68,8.58a8,8,0,0,0,6.24,2.44c4,0,6.65-1.77,8-5.4a1.33,1.33,0,1,1,2.48.95C212.6,38.83,209,41.28,203.86,41.28Z"/><polygon class="cls-3" points="30.64 31.03 27.98 26.69 27.98 11.44 30.64 11.44 30.64 31.03"/><rect class="cls-3" x="60.85" y="11.44" width="2.65" height="29.66"/><rect class="cls-3" x="122.5" y="25.25" width="2.65" height="15.84"/><path class="cls-4" d="M115.13,13.36a11.89,11.89,0,0,0-1.79.14,16.29,16.29,0,0,1,2-.13h-0.17Z"/><path class="cls-4" d="M117.32,25.19a31.24,31.24,0,0,0-3.91.25,10.83,10.83,0,0,0-3.57,1.06,7.24,7.24,0,0,0-2.63,2.25,6.3,6.3,0,0,0-1,3.76,7.44,7.44,0,0,0,.44,2.54,6.35,6.35,0,0,0,1.25,2.13,6.44,6.44,0,0,0,1.94,1.47,5.52,5.52,0,0,0,2.5.56,9,9,0,0,0,4-.88,9.16,9.16,0,0,0,3-2.38,12.35,12.35,0,0,0,2-3.41,14.37,14.37,0,0,0,.94-4q0.06-.81.09-1.63t0-1.63h0.06q-1.32-.12-2.63-0.13h-2.57Z"/><path d="M23.16,36.4a7.56,7.56,0,0,0-.91.44,23.89,23.89,0,0,1-2.19,1,25.28,25.28,0,0,1-3.07,1,14,14,0,0,1-3.47.44,10.47,10.47,0,0,1-5.07-1.13,9.78,9.78,0,0,1-3.38-3,12.66,12.66,0,0,1-1.91-4.35,22,22,0,0,1-.59-5.16,17.71,17.71,0,0,1,.66-4.91,10.43,10.43,0,0,1,2-3.91,9.75,9.75,0,0,1,3.41-2.57,11.49,11.49,0,0,1,4.85-.94,14,14,0,0,1,2.91.31,25.1,25.1,0,0,1,2.69.72L21.22,15a4.63,4.63,0,0,0,1.13.31,0.36,0.36,0,0,0,.38-0.44V12.92l-0.31-.44A22.42,22.42,0,0,0,18,11.35,29.17,29.17,0,0,0,13.52,11a15.61,15.61,0,0,0-5.92,1,11,11,0,0,0-4.23,3A12.79,12.79,0,0,0,.85,19.62,19.79,19.79,0,0,0,0,25.56a26.42,26.42,0,0,0,.72,6.35A13.81,13.81,0,0,0,3,37a10.69,10.69,0,0,0,4.19,3.32,15,15,0,0,0,6.29,1.19,20.11,20.11,0,0,0,2.41-.16q1.28-.16,2.6-0.44a21.17,21.17,0,0,0,2.57-.72,14.05,14.05,0,0,0,2.25-1l0.25-.44q0-.5.06-1.28A0.92,0.92,0,0,0,23.16,36.4Z"/><path d="M115.3,13.36h0Z"/><path class="cls-4" d="M117.32,25.19a31.24,31.24,0,0,0-3.91.25,10.83,10.83,0,0,0-3.57,1.06,7.24,7.24,0,0,0-2.63,2.25,6.3,6.3,0,0,0-1,3.76,7.44,7.44,0,0,0,.44,2.54,6.35,6.35,0,0,0,1.25,2.13,6.44,6.44,0,0,0,1.94,1.47,5.52,5.52,0,0,0,2.5.56,9,9,0,0,0,4-.88,9.16,9.16,0,0,0,3-2.38,12.35,12.35,0,0,0,2-3.41,14.37,14.37,0,0,0,.94-4q0.06-.81.09-1.63t0-1.63h0.06q-1.32-.12-2.63-0.13h-2.57Z"/><path d="M124.46,15.52a6.43,6.43,0,0,0-2-2.66,7.43,7.43,0,0,0-3.16-1.38,21.86,21.86,0,0,0-4.26-.38,20.09,20.09,0,0,0-2.41.16,22.22,22.22,0,0,0-2.57.47,17.61,17.61,0,0,0-2.5.81,12.4,12.4,0,0,0-2.16,1.13h0l1.25,2.17a17,17,0,0,1,6.67-2.36,11.89,11.89,0,0,1,1.79-.14h0.29a9.43,9.43,0,0,1,5.15,1.34q2,1.35,2,5.1v3.38q-1.75-.06-3.88-0.06t-4.19.19a24.5,24.5,0,0,0-4.13.72,11.58,11.58,0,0,0-3.57,1.6,8,8,0,0,0-2.5,2.72,8.36,8.36,0,0,0-.94,4.16,8.7,8.7,0,0,0,2.5,6.48,8.87,8.87,0,0,0,6.51,2.47,10.62,10.62,0,0,0,6.14-1.75,12.56,12.56,0,0,0,4.13-4.88l0.13,5.76,0.5,0.5h1.38l0.5-.5V19.8A11.32,11.32,0,0,0,124.46,15.52Zm-2,9.8q0,0.81,0,1.63t-0.09,1.63a14.37,14.37,0,0,1-.94,4,12.35,12.35,0,0,1-2,3.41,9.16,9.16,0,0,1-3,2.38,9,9,0,0,1-4,.88,5.52,5.52,0,0,1-2.5-.56,6.44,6.44,0,0,1-1.94-1.47A6.35,6.35,0,0,1,106.62,35a7.44,7.44,0,0,1-.44-2.54,6.3,6.3,0,0,1,1-3.76,7.24,7.24,0,0,1,2.63-2.25,10.83,10.83,0,0,1,3.57-1.06,31.24,31.24,0,0,1,3.91-.25h2.57q1.31,0,2.63.13h-0.06Z"/><path d="M74.81,11.29a4.15,4.15,0,0,0-1-.13H72.75a11.17,11.17,0,0,0-5.23,1.25A11.75,11.75,0,0,0,63.42,16V11.92l-0.5-.28H61.29l-0.44.28V40.59l0.5,0.5H63l0.5-.5V21.87a7.5,7.5,0,0,1,.69-3.22A8,8,0,0,1,66,16.11a8.92,8.92,0,0,1,2.69-1.69,8.46,8.46,0,0,1,3.22-.63l1.31,0,0.17,0,1.44-2.5Z"/><path d="M87.84,11a15.26,15.26,0,0,0-3.22.34,8.46,8.46,0,0,0-2.85,1.16,6.4,6.4,0,0,0-2,2.13,6.13,6.13,0,0,0-.78,3.19,7.44,7.44,0,0,0,1.16,4.35A10.45,10.45,0,0,0,83,24.94a19.8,19.8,0,0,0,3.76,1.91,40.07,40.07,0,0,1,3.76,1.66,10.49,10.49,0,0,1,2.88,2.1,4.49,4.49,0,0,1,1.16,3.22,4.63,4.63,0,0,1-.66,2.54A5,5,0,0,1,92.16,38a7.93,7.93,0,0,1-2.38.91,12.23,12.23,0,0,1-2.57.28,16.54,16.54,0,0,1-2.54-.16,9.7,9.7,0,0,1-1.75-.44q-0.78-.28-1.6-0.66t-2-.81a0.42,0.42,0,0,0-.44.5v2.07l0.31,0.38a17.4,17.4,0,0,0,3.88,1,26,26,0,0,0,4,.34,17.42,17.42,0,0,0,3.6-.38,9.76,9.76,0,0,0,3.22-1.28,7.11,7.11,0,0,0,2.32-2.35A6.63,6.63,0,0,0,97.1,34a7.33,7.33,0,0,0-1.16-4.29,10.09,10.09,0,0,0-2.88-2.75A22.72,22.72,0,0,0,89.31,25a39.45,39.45,0,0,1-3.76-1.72,10.59,10.59,0,0,1-2.88-2.16,4.69,4.69,0,0,1-1.16-3.32,4,4,0,0,1,.56-2.19,4.32,4.32,0,0,1,1.47-1.41,6.44,6.44,0,0,1,2-.75,11.88,11.88,0,0,1,1.65-.19h0a21.31,21.31,0,0,1,7.32,1.06l1.19-2.06h0A31.09,31.09,0,0,0,87.84,11Z"/><path d="M49.31,29a9.87,9.87,0,0,1-.85,3.68,11.33,11.33,0,0,1-2.32,3.38,10.76,10.76,0,0,1-3.41,2.29,10.31,10.31,0,0,1-4.1.85,8,8,0,0,1-3.79-.81,6.94,6.94,0,0,1-2.5-2.22A9.15,9.15,0,0,1,31,33a17,17,0,0,1-.41-3.79l0-17.28a0.61,0.61,0,0,0-.44-0.5H28.53l-0.5.5c-0.13,5.76,0,11.52,0,17.28A18.81,18.81,0,0,0,28.58,34a10.82,10.82,0,0,0,1.88,3.91,8.74,8.74,0,0,0,3.32,2.6,11.49,11.49,0,0,0,4.85.94,11.91,11.91,0,0,0,6.45-1.72,12,12,0,0,0,4.23-4.64v6H52V11.44H49.31V29Z"/><path class="cls-3" d="M46.69,1.58L45.4,3.32q-0.78,1-1.72,2.21T41.92,7.79q-0.82,1.08-1.46,1.86l-0.82,1-0.28.14H38.5a0.33,0.33,0,0,1-.38-0.38,6.41,6.41,0,0,1,.47-0.75L39.75,8q0.68-1,1.53-2.21l1.58-2.26q0.73-1.06,1.29-1.83t0.71-1l0.33-.14h1.65c0.25,0,.38.1,0.38,0.28A3.74,3.74,0,0,1,46.69,1.58Z"/></svg>