<svg id="Layer_1" data-name="Layer 1" xmlns="http://www.w3.org/2000/svg" viewBox="0 0 320 320"><defs><style>.cls-1{fill:none;stroke:#1e120d;stroke-miterlimit:10;stroke-width:10px;}</style></defs><title>ico-phone</title><path class="cls-1" d="M160,6.89A153.11,153.11,0,1,0,313.11,160,153.11,153.11,0,0,0,160,6.89ZM240.77,228.6l-7.49,7.33-0.16-.14a42.65,42.65,0,0,1-10.71,6.07,44.33,44.33,0,0,1-10.93,2.75c-1.71.18-41.38,3.9-90.6-45.32-35.61-35.61-48.73-61.85-45.27-90.56a44.51,44.51,0,0,1,2.71-10.9,42.7,42.7,0,0,1,6.09-10.74l-0.2-.2,7.39-7.43a13.66,13.66,0,0,1,19.28-.36l26.23,26.23a13.66,13.66,0,0,1-.35,19.28L132.41,129l-8.87,8.86c0.46,0.81.93,1.66,1.42,2.55,4.64,8.35,11,19.79,23,31.84s23.44,18.36,31.79,23l2.61,1.45,13.21-13.22a13.68,13.68,0,0,1,19.28-.36l26.23,26.23A13.69,13.69,0,0,1,240.77,228.6Z"/></svg>